<?xml version="1.0" standalone="no"?>
<!DOCTYPE svg PUBLIC "-//W3C//DTD SVG 20010904//EN"
 "http://www.w3.org/TR/2001/REC-SVG-20010904/DTD/svg10.dtd">
<svg version="1.0" xmlns="http://www.w3.org/2000/svg"
 width="2000.000000pt" height="2000.000000pt" viewBox="0 0 2000.000000 2000.000000"
 preserveAspectRatio="xMidYMid meet">
<metadata>
Created by potrace 1.11, written by Peter Selinger 2001-2013
</metadata>
<g transform="translate(0.000000,2000.000000) scale(0.100000,-0.100000)"
fill="#000000" stroke="none">
<path d="M5090 10024 c-2698 -4673 -4911 -8507 -4918 -8520 l-13 -24 3283 0
3283 0 1635 2835 c899 1559 1637 2834 1640 2834 3 0 741 -1275 1640 -2834
l1635 -2835 3283 0 3284 0 -31 53 c-16 28 -753 1306 -1638 2839 l-1608 2787
-3279 1 c-2640 0 -3277 2 -3273 13 2 7 737 1281 1633 2832 895 1551 1628 2827
1628 2835 0 16 -3265 5680 -3274 5680 -3 0 -2212 -3824 -4910 -8496z"/>
</g>
</svg>
